<svg xmlns="http://www.w3.org/2000/svg" viewBox="0 0 60 12" width="480" height="96" role="img" aria-labelledby="title" shape-rendering="crispEdges">
<title id="title">pixelelated</title>
<desc>Tiny5 Duo LCD; hard RGB555 bands; transparent background and LCD cell gaps.</desc>
<defs>
<clipPath id="wordmark-clip" clipPathUnits="userSpaceOnUse">
<g id="wordmark">
<path d="M6.9375 4.5625 L6.0625 4.5625 L6.0625 5.4375 L6.9375 5.4375 Z"/>
<path d="M5.9375 4.5625 L5.0625 4.5625 L5.0625 5.4375 L5.9375 5.4375 Z"/>
<path d="M4.9375 4.5625 L4.0625 4.5625 L4.0625 5.4375 L4.9375 5.4375 Z"/>
<path d="M3.9375 4.5625 L3.0625 4.5625 L3.0625 5.4375 L3.9375 5.4375 Z"/>
<path d="M7.9375 5.5625 L7.0625 5.5625 L7.0625 6.4375 L7.9375 6.4375 Z"/>
<path d="M6.9375 5.5625 L6.0625 5.5625 L6.0625 6.4375 L6.9375 6.4375 Z"/>
<path d="M4.9375 5.5625 L4.0625 5.5625 L4.0625 6.4375 L4.9375 6.4375 Z"/>
<path d="M3.9375 5.5625 L3.0625 5.5625 L3.0625 6.4375 L3.9375 6.4375 Z"/>
<path d="M7.9375 6.5625 L7.0625 6.5625 L7.0625 7.4375 L7.9375 7.4375 Z"/>
<path d="M6.9375 6.5625 L6.0625 6.5625 L6.0625 7.4375 L6.9375 7.4375 Z"/>
<path d="M4.9375 6.5625 L4.0625 6.5625 L4.0625 7.4375 L4.9375 7.4375 Z"/>
<path d="M3.9375 6.5625 L3.0625 6.5625 L3.0625 7.4375 L3.9375 7.4375 Z"/>
<path d="M6.9375 7.5625 L6.0625 7.5625 L6.0625 8.4375 L6.9375 8.4375 Z"/>
<path d="M5.9375 7.5625 L5.0625 7.5625 L5.0625 8.4375 L5.9375 8.4375 Z"/>
<path d="M4.9375 7.5625 L4.0625 7.5625 L4.0625 8.4375 L4.9375 8.4375 Z"/>
<path d="M3.9375 7.5625 L3.0625 7.5625 L3.0625 8.4375 L3.9375 8.4375 Z"/>
<path d="M3.9375 8.5625 L3.0625 8.5625 L3.0625 9.4375 L3.9375 9.4375 Z"/>
<path d="M4.9375 8.5625 L4.0625 8.5625 L4.0625 9.4375 L4.9375 9.4375 Z"/>
<path d="M9.9375 2.5625 L9.0625 2.5625 L9.0625 3.4375 L9.9375 3.4375 Z"/>
<path d="M10.9375 2.5625 L10.0625 2.5625 L10.0625 3.4375 L10.9375 3.4375 Z"/>
<path d="M9.9375 4.5625 L9.0625 4.5625 L9.0625 5.4375 L9.9375 5.4375 Z"/>
<path d="M10.9375 4.5625 L10.0625 4.5625 L10.0625 5.4375 L10.9375 5.4375 Z"/>
<path d="M9.9375 5.5625 L9.0625 5.5625 L9.0625 6.4375 L9.9375 6.4375 Z"/>
<path d="M10.9375 5.5625 L10.0625 5.5625 L10.0625 6.4375 L10.9375 6.4375 Z"/>
<path d="M9.9375 6.5625 L9.0625 6.5625 L9.0625 7.4375 L9.9375 7.4375 Z"/>
<path d="M10.9375 6.5625 L10.0625 6.5625 L10.0625 7.4375 L10.9375 7.4375 Z"/>
<path d="M9.9375 7.5625 L9.0625 7.5625 L9.0625 8.4375 L9.9375 8.4375 Z"/>
<path d="M10.9375 7.5625 L10.0625 7.5625 L10.0625 8.4375 L10.9375 8.4375 Z"/>
<path d="M12.9375 4.5625 L12.0625 4.5625 L12.0625 5.4375 L12.9375 5.4375 Z"/>
<path d="M13.9375 4.5625 L13.0625 4.5625 L13.0625 5.4375 L13.9375 5.4375 Z"/>
<path d="M15.9375 4.5625 L15.0625 4.5625 L15.0625 5.4375 L15.9375 5.4375 Z"/>
<path d="M16.9375 4.5625 L16.0625 4.5625 L16.0625 5.4375 L16.9375 5.4375 Z"/>
<path d="M13.9375 5.5625 L13.0625 5.5625 L13.0625 6.4375 L13.9375 6.4375 Z"/>
<path d="M14.9375 5.5625 L14.0625 5.5625 L14.0625 6.4375 L14.9375 6.4375 Z"/>
<path d="M15.9375 5.5625 L15.0625 5.5625 L15.0625 6.4375 L15.9375 6.4375 Z"/>
<path d="M12.9375 6.5625 L12.0625 6.5625 L12.0625 7.4375 L12.9375 7.4375 Z"/>
<path d="M13.9375 6.5625 L13.0625 6.5625 L13.0625 7.4375 L13.9375 7.4375 Z"/>
<path d="M15.9375 6.5625 L15.0625 6.5625 L15.0625 7.4375 L15.9375 7.4375 Z"/>
<path d="M16.9375 6.5625 L16.0625 6.5625 L16.0625 7.4375 L16.9375 7.4375 Z"/>
<path d="M12.9375 7.5625 L12.0625 7.5625 L12.0625 8.4375 L12.9375 8.4375 Z"/>
<path d="M13.9375 7.5625 L13.0625 7.5625 L13.0625 8.4375 L13.9375 8.4375 Z"/>
<path d="M15.9375 7.5625 L15.0625 7.5625 L15.0625 8.4375 L15.9375 8.4375 Z"/>
<path d="M16.9375 7.5625 L16.0625 7.5625 L16.0625 8.4375 L16.9375 8.4375 Z"/>
<path d="M19.9375 4.5625 L19.0625 4.5625 L19.0625 5.4375 L19.9375 5.4375 Z"/>
<path d="M20.9375 4.5625 L20.0625 4.5625 L20.0625 5.4375 L20.9375 5.4375 Z"/>
<path d="M21.9375 4.5625 L21.0625 4.5625 L21.0625 5.4375 L21.9375 5.4375 Z"/>
<path d="M18.9375 5.5625 L18.0625 5.5625 L18.0625 6.4375 L18.9375 6.4375 Z"/>
<path d="M19.9375 5.5625 L19.0625 5.5625 L19.0625 6.4375 L19.9375 6.4375 Z"/>
<path d="M20.9375 5.5625 L20.0625 5.5625 L20.0625 6.4375 L20.9375 6.4375 Z"/>
<path d="M21.9375 5.5625 L21.0625 5.5625 L21.0625 6.4375 L21.9375 6.4375 Z"/>
<path d="M22.9375 5.5625 L22.0625 5.5625 L22.0625 6.4375 L22.9375 6.4375 Z"/>
<path d="M18.9375 6.5625 L18.0625 6.5625 L18.0625 7.4375 L18.9375 7.4375 Z"/>
<path d="M19.9375 6.5625 L19.0625 6.5625 L19.0625 7.4375 L19.9375 7.4375 Z"/>
<path d="M19.9375 7.5625 L19.0625 7.5625 L19.0625 8.4375 L19.9375 8.4375 Z"/>
<path d="M20.9375 7.5625 L20.0625 7.5625 L20.0625 8.4375 L20.9375 8.4375 Z"/>
<path d="M21.9375 7.5625 L21.0625 7.5625 L21.0625 8.4375 L21.9375 8.4375 Z"/>
<path d="M22.9375 7.5625 L22.0625 7.5625 L22.0625 8.4375 L22.9375 8.4375 Z"/>
<path d="M24.9375 3.5625 L24.0625 3.5625 L24.0625 4.4375 L24.9375 4.4375 Z"/>
<path d="M25.9375 3.5625 L25.0625 3.5625 L25.0625 4.4375 L25.9375 4.4375 Z"/>
<path d="M24.9375 4.5625 L24.0625 4.5625 L24.0625 5.4375 L24.9375 5.4375 Z"/>
<path d="M25.9375 4.5625 L25.0625 4.5625 L25.0625 5.4375 L25.9375 5.4375 Z"/>
<path d="M24.9375 5.5625 L24.0625 5.5625 L24.0625 6.4375 L24.9375 6.4375 Z"/>
<path d="M25.9375 5.5625 L25.0625 5.5625 L25.0625 6.4375 L25.9375 6.4375 Z"/>
<path d="M24.9375 6.5625 L24.0625 6.5625 L24.0625 7.4375 L24.9375 7.4375 Z"/>
<path d="M25.9375 6.5625 L25.0625 6.5625 L25.0625 7.4375 L25.9375 7.4375 Z"/>
<path d="M24.9375 7.5625 L24.0625 7.5625 L24.0625 8.4375 L24.9375 8.4375 Z"/>
<path d="M25.9375 7.5625 L25.0625 7.5625 L25.0625 8.4375 L25.9375 8.4375 Z"/>
<path d="M28.9375 4.5625 L28.0625 4.5625 L28.0625 5.4375 L28.9375 5.4375 Z"/>
<path d="M29.9375 4.5625 L29.0625 4.5625 L29.0625 5.4375 L29.9375 5.4375 Z"/>
<path d="M30.9375 4.5625 L30.0625 4.5625 L30.0625 5.4375 L30.9375 5.4375 Z"/>
<path d="M27.9375 5.5625 L27.0625 5.5625 L27.0625 6.4375 L27.9375 6.4375 Z"/>
<path d="M28.9375 5.5625 L28.0625 5.5625 L28.0625 6.4375 L28.9375 6.4375 Z"/>
<path d="M29.9375 5.5625 L29.0625 5.5625 L29.0625 6.4375 L29.9375 6.4375 Z"/>
<path d="M30.9375 5.5625 L30.0625 5.5625 L30.0625 6.4375 L30.9375 6.4375 Z"/>
<path d="M31.9375 5.5625 L31.0625 5.5625 L31.0625 6.4375 L31.9375 6.4375 Z"/>
<path d="M27.9375 6.5625 L27.0625 6.5625 L27.0625 7.4375 L27.9375 7.4375 Z"/>
<path d="M28.9375 6.5625 L28.0625 6.5625 L28.0625 7.4375 L28.9375 7.4375 Z"/>
<path d="M28.9375 7.5625 L28.0625 7.5625 L28.0625 8.4375 L28.9375 8.4375 Z"/>
<path d="M29.9375 7.5625 L29.0625 7.5625 L29.0625 8.4375 L29.9375 8.4375 Z"/>
<path d="M30.9375 7.5625 L30.0625 7.5625 L30.0625 8.4375 L30.9375 8.4375 Z"/>
<path d="M31.9375 7.5625 L31.0625 7.5625 L31.0625 8.4375 L31.9375 8.4375 Z"/>
<path d="M33.9375 3.5625 L33.0625 3.5625 L33.0625 4.4375 L33.9375 4.4375 Z"/>
<path d="M34.9375 3.5625 L34.0625 3.5625 L34.0625 4.4375 L34.9375 4.4375 Z"/>
<path d="M33.9375 4.5625 L33.0625 4.5625 L33.0625 5.4375 L33.9375 5.4375 Z"/>
<path d="M34.9375 4.5625 L34.0625 4.5625 L34.0625 5.4375 L34.9375 5.4375 Z"/>
<path d="M33.9375 5.5625 L33.0625 5.5625 L33.0625 6.4375 L33.9375 6.4375 Z"/>
<path d="M34.9375 5.5625 L34.0625 5.5625 L34.0625 6.4375 L34.9375 6.4375 Z"/>
<path d="M33.9375 6.5625 L33.0625 6.5625 L33.0625 7.4375 L33.9375 7.4375 Z"/>
<path d="M34.9375 6.5625 L34.0625 6.5625 L34.0625 7.4375 L34.9375 7.4375 Z"/>
<path d="M33.9375 7.5625 L33.0625 7.5625 L33.0625 8.4375 L33.9375 8.4375 Z"/>
<path d="M34.9375 7.5625 L34.0625 7.5625 L34.0625 8.4375 L34.9375 8.4375 Z"/>
<path d="M37.9375 4.5625 L37.0625 4.5625 L37.0625 5.4375 L37.9375 5.4375 Z"/>
<path d="M38.9375 4.5625 L38.0625 4.5625 L38.0625 5.4375 L38.9375 5.4375 Z"/>
<path d="M39.9375 4.5625 L39.0625 4.5625 L39.0625 5.4375 L39.9375 5.4375 Z"/>
<path d="M40.9375 4.5625 L40.0625 4.5625 L40.0625 5.4375 L40.9375 5.4375 Z"/>
<path d="M36.9375 5.5625 L36.0625 5.5625 L36.0625 6.4375 L36.9375 6.4375 Z"/>
<path d="M37.9375 5.5625 L37.0625 5.5625 L37.0625 6.4375 L37.9375 6.4375 Z"/>
<path d="M39.9375 5.5625 L39.0625 5.5625 L39.0625 6.4375 L39.9375 6.4375 Z"/>
<path d="M40.9375 5.5625 L40.0625 5.5625 L40.0625 6.4375 L40.9375 6.4375 Z"/>
<path d="M36.9375 6.5625 L36.0625 6.5625 L36.0625 7.4375 L36.9375 7.4375 Z"/>
<path d="M37.9375 6.5625 L37.0625 6.5625 L37.0625 7.4375 L37.9375 7.4375 Z"/>
<path d="M39.9375 6.5625 L39.0625 6.5625 L39.0625 7.4375 L39.9375 7.4375 Z"/>
<path d="M40.9375 6.5625 L40.0625 6.5625 L40.0625 7.4375 L40.9375 7.4375 Z"/>
<path d="M37.9375 7.5625 L37.0625 7.5625 L37.0625 8.4375 L37.9375 8.4375 Z"/>
<path d="M38.9375 7.5625 L38.0625 7.5625 L38.0625 8.4375 L38.9375 8.4375 Z"/>
<path d="M39.9375 7.5625 L39.0625 7.5625 L39.0625 8.4375 L39.9375 8.4375 Z"/>
<path d="M40.9375 7.5625 L40.0625 7.5625 L40.0625 8.4375 L40.9375 8.4375 Z"/>
<path d="M42.9375 3.5625 L42.0625 3.5625 L42.0625 4.4375 L42.9375 4.4375 Z"/>
<path d="M43.9375 3.5625 L43.0625 3.5625 L43.0625 4.4375 L43.9375 4.4375 Z"/>
<path d="M42.9375 4.5625 L42.0625 4.5625 L42.0625 5.4375 L42.9375 5.4375 Z"/>
<path d="M43.9375 4.5625 L43.0625 4.5625 L43.0625 5.4375 L43.9375 5.4375 Z"/>
<path d="M44.9375 4.5625 L44.0625 4.5625 L44.0625 5.4375 L44.9375 5.4375 Z"/>
<path d="M42.9375 5.5625 L42.0625 5.5625 L42.0625 6.4375 L42.9375 6.4375 Z"/>
<path d="M43.9375 5.5625 L43.0625 5.5625 L43.0625 6.4375 L43.9375 6.4375 Z"/>
<path d="M42.9375 6.5625 L42.0625 6.5625 L42.0625 7.4375 L42.9375 7.4375 Z"/>
<path d="M43.9375 6.5625 L43.0625 6.5625 L43.0625 7.4375 L43.9375 7.4375 Z"/>
<path d="M43.9375 7.5625 L43.0625 7.5625 L43.0625 8.4375 L43.9375 8.4375 Z"/>
<path d="M44.9375 7.5625 L44.0625 7.5625 L44.0625 8.4375 L44.9375 8.4375 Z"/>
<path d="M47.9375 4.5625 L47.0625 4.5625 L47.0625 5.4375 L47.9375 5.4375 Z"/>
<path d="M48.9375 4.5625 L48.0625 4.5625 L48.0625 5.4375 L48.9375 5.4375 Z"/>
<path d="M49.9375 4.5625 L49.0625 4.5625 L49.0625 5.4375 L49.9375 5.4375 Z"/>
<path d="M46.9375 5.5625 L46.0625 5.5625 L46.0625 6.4375 L46.9375 6.4375 Z"/>
<path d="M47.9375 5.5625 L47.0625 5.5625 L47.0625 6.4375 L47.9375 6.4375 Z"/>
<path d="M48.9375 5.5625 L48.0625 5.5625 L48.0625 6.4375 L48.9375 6.4375 Z"/>
<path d="M49.9375 5.5625 L49.0625 5.5625 L49.0625 6.4375 L49.9375 6.4375 Z"/>
<path d="M50.9375 5.5625 L50.0625 5.5625 L50.0625 6.4375 L50.9375 6.4375 Z"/>
<path d="M46.9375 6.5625 L46.0625 6.5625 L46.0625 7.4375 L46.9375 7.4375 Z"/>
<path d="M47.9375 6.5625 L47.0625 6.5625 L47.0625 7.4375 L47.9375 7.4375 Z"/>
<path d="M47.9375 7.5625 L47.0625 7.5625 L47.0625 8.4375 L47.9375 8.4375 Z"/>
<path d="M48.9375 7.5625 L48.0625 7.5625 L48.0625 8.4375 L48.9375 8.4375 Z"/>
<path d="M49.9375 7.5625 L49.0625 7.5625 L49.0625 8.4375 L49.9375 8.4375 Z"/>
<path d="M50.9375 7.5625 L50.0625 7.5625 L50.0625 8.4375 L50.9375 8.4375 Z"/>
<path d="M56.9375 3.5625 L56.0625 3.5625 L56.0625 4.4375 L56.9375 4.4375 Z"/>
<path d="M55.9375 3.5625 L55.0625 3.5625 L55.0625 4.4375 L55.9375 4.4375 Z"/>
<path d="M56.9375 4.5625 L56.0625 4.5625 L56.0625 5.4375 L56.9375 5.4375 Z"/>
<path d="M55.9375 4.5625 L55.0625 4.5625 L55.0625 5.4375 L55.9375 5.4375 Z"/>
<path d="M54.9375 4.5625 L54.0625 4.5625 L54.0625 5.4375 L54.9375 5.4375 Z"/>
<path d="M53.9375 4.5625 L53.0625 4.5625 L53.0625 5.4375 L53.9375 5.4375 Z"/>
<path d="M53.9375 5.5625 L53.0625 5.5625 L53.0625 6.4375 L53.9375 6.4375 Z"/>
<path d="M56.9375 5.5625 L56.0625 5.5625 L56.0625 6.4375 L56.9375 6.4375 Z"/>
<path d="M55.9375 5.5625 L55.0625 5.5625 L55.0625 6.4375 L55.9375 6.4375 Z"/>
<path d="M52.9375 5.5625 L52.0625 5.5625 L52.0625 6.4375 L52.9375 6.4375 Z"/>
<path d="M56.9375 6.5625 L56.0625 6.5625 L56.0625 7.4375 L56.9375 7.4375 Z"/>
<path d="M55.9375 6.5625 L55.0625 6.5625 L55.0625 7.4375 L55.9375 7.4375 Z"/>
<path d="M53.9375 6.5625 L53.0625 6.5625 L53.0625 7.4375 L53.9375 7.4375 Z"/>
<path d="M52.9375 6.5625 L52.0625 6.5625 L52.0625 7.4375 L52.9375 7.4375 Z"/>
<path d="M53.9375 7.5625 L53.0625 7.5625 L53.0625 8.4375 L53.9375 8.4375 Z"/>
<path d="M56.9375 7.5625 L56.0625 7.5625 L56.0625 8.4375 L56.9375 8.4375 Z"/>
<path d="M55.9375 7.5625 L55.0625 7.5625 L55.0625 8.4375 L55.9375 8.4375 Z"/>
<path d="M54.9375 7.5625 L54.0625 7.5625 L54.0625 8.4375 L54.9375 8.4375 Z"/>
</g>
</clipPath>
</defs>
<g id="palette-bands" clip-path="url(#wordmark-clip)">
<rect x="3.0625" y="2.5625" width="53.875" height="6.875" fill="#102129"/>
</g>
</svg>
